<svg width="26" height="24" viewBox="0 0 26 24" fill="none" xmlns="http://www.w3.org/2000/svg">
<path d="M8.21259 1.8726C4.78891 1.77952 1.94726 4.52523 1.85596 8.01554V8.31803C1.85596 10.9009 3.62486 13.5302 5.81601 15.8804C7.41373 17.5557 9.15981 19.0914 11.0086 20.4759C12.1955 21.3601 13.8046 21.3601 14.9915 20.4759C16.8403 19.0914 18.5749 17.5557 20.1841 15.8804C22.3752 13.5302 24.1441 10.9009 24.1555 8.31803C24.224 4.83936 21.5193 1.95404 18.107 1.88423H17.8103C16.0186 1.88423 14.2953 2.6172 13.0172 3.89698C11.739 2.6172 10.0271 1.89587 8.23541 1.88423L8.21259 1.8726Z" stroke="white" stroke-width="2" stroke-linecap="round" stroke-linejoin="round"/>
</svg>
