<svg width="20" height="20" viewBox="0 0 20 20" fill="none" xmlns="http://www.w3.org/2000/svg">
<path d="M10.0003 1.47221C5.70972 1.52332 2.26528 5.03295 2.30801 9.30925C2.30801 13.4152 6.02596 16.9844 8.24818 18.7478C9.27382 19.5655 10.7354 19.5655 11.761 18.7478C13.9747 16.993 17.7012 13.4152 17.7012 9.30925C17.7439 5.03295 14.2995 1.52332 10.0089 1.47221H10.0003Z" stroke="white" stroke-linecap="round" stroke-linejoin="round"/>
<path d="M9.9999 12.9467C7.76058 12.9978 5.90588 11.2259 5.8546 9.00259C5.80332 6.77925 7.58109 4.92222 9.81186 4.8711C12.0426 4.81999 13.9059 6.59184 13.9572 8.81518C13.9572 8.84073 13.9572 8.87481 13.9572 8.90036C13.9828 11.1067 12.205 12.9126 9.9999 12.9381V12.9467Z" stroke="white" stroke-linecap="round" stroke-linejoin="round"/>
</svg>
