<svg width="22" height="20" viewBox="0 0 22 20" fill="none" xmlns="http://www.w3.org/2000/svg">
<path d="M11.0078 11.3V6.49996" stroke="white" stroke-width="2" stroke-linecap="round" stroke-linejoin="round"/>
<path d="M10.9992 13.85C11.3627 13.85 11.6575 14.1447 11.6575 14.5083C11.6575 14.8719 11.3627 15.1666 10.9992 15.1666C10.6356 15.1666 10.3408 14.8719 10.3408 14.5083C10.3408 14.1447 10.6356 13.85 10.9992 13.85Z" fill="white" stroke="white" stroke-width="1.5" stroke-linecap="round" stroke-linejoin="round"/>
<path d="M20.4882 14.6045L13.0269 2.17062C12.5923 1.45056 11.8264 1.01767 11.0002 1.01767C10.1741 1.01767 9.40815 1.45056 8.97356 2.14919L1.51228 14.6045C1.07769 15.3246 1.07769 16.2118 1.49077 16.9533C1.90385 17.6947 2.66977 18.1491 3.53896 18.1491H18.4615C19.3092 18.1491 20.0751 17.6947 20.5097 16.9533C20.9228 16.2118 20.9228 15.3288 20.4882 14.6045Z" stroke="white" stroke-width="2" stroke-miterlimit="10"/>
</svg>
