<svg width="25" height="26" viewBox="0 0 25 26" fill="none" xmlns="http://www.w3.org/2000/svg">
<path d="M2.30005 4.70132H6.28938" stroke="white" stroke-width="2" stroke-linecap="round" stroke-linejoin="round"/>
<path d="M17.9587 13.2027H22.5667" stroke="white" stroke-width="2" stroke-linecap="round" stroke-linejoin="round"/>
<path d="M14.8761 15.9333C16.4667 15.9333 17.7561 14.6343 17.7561 13.032C17.7561 11.4296 16.4667 10.1306 14.8761 10.1306C13.2855 10.1306 11.9961 11.4296 11.9961 13.032C11.9961 14.6343 13.2855 15.9333 14.8761 15.9333Z" stroke="white" stroke-width="2" stroke-linecap="round" stroke-linejoin="round"/>
<path d="M9.64929 7.60265C11.2399 7.60265 12.5293 6.30368 12.5293 4.70132C12.5293 3.09896 11.2399 1.79999 9.64929 1.79999C8.05871 1.79999 6.76929 3.09896 6.76929 4.70132C6.76929 6.30368 8.05871 7.60265 9.64929 7.60265Z" stroke="white" stroke-width="2" stroke-linecap="round" stroke-linejoin="round"/>
<path d="M13.052 4.70132H22.5667" stroke="white" stroke-width="2" stroke-linecap="round" stroke-linejoin="round"/>
<path d="M2.30005 13.2027H11.8254" stroke="white" stroke-width="2" stroke-linecap="round" stroke-linejoin="round"/>
<path d="M2.30005 21.3093H4.07072" stroke="white" stroke-width="2" stroke-linecap="round" stroke-linejoin="round"/>
<path d="M7.29211 24.2C8.88269 24.2 10.1721 22.901 10.1721 21.2986C10.1721 19.6963 8.88269 18.3973 7.29211 18.3973C5.70153 18.3973 4.41211 19.6963 4.41211 21.2986C4.41211 22.901 5.70153 24.2 7.29211 24.2Z" stroke="white" stroke-width="2" stroke-linecap="round" stroke-linejoin="round"/>
<path d="M11.1428 21.3093H22.5668" stroke="white" stroke-width="2" stroke-linecap="round" stroke-linejoin="round"/>
</svg>
