<svg width="26" height="25" viewBox="0 0 26 25" fill="none" xmlns="http://www.w3.org/2000/svg">
<path d="M13.0001 12.9115C15.1935 12.9115 16.964 11.1312 16.964 8.94758C16.964 6.76397 15.1837 4.98364 13.0001 4.98364C10.8165 4.98364 9.03613 6.76397 9.03613 8.94758C9.03613 11.1312 10.8165 12.9115 13.0001 12.9115Z" stroke="#272626" stroke-width="2" stroke-linecap="round" stroke-linejoin="round"/>
<path d="M16.9639 17.7803C14.741 15.6754 11.259 15.6754 9.0459 17.7803" stroke="#272626" stroke-width="2" stroke-linecap="round" stroke-linejoin="round"/>
<path d="M6.98996 13.3311C3.98012 14.2754 1.9834 15.9082 1.9834 17.7672C1.9834 20.6885 6.91127 23.0689 12.9998 23.0689C19.0883 23.0689 24.0162 20.6984 24.0162 17.7672C24.0162 15.9082 22.0195 14.2754 19.0096 13.3311" stroke="#272626" stroke-width="2" stroke-linecap="round" stroke-linejoin="round"/>
<path d="M17 9H19" stroke="#262626" stroke-width="2" stroke-linecap="round"/>
<path d="M7 9H9" stroke="#262626" stroke-width="2" stroke-linecap="round"/>
<path d="M13 4.5V2.5" stroke="#262626" stroke-width="2" stroke-linecap="round"/>
</svg>
