<svg width="265" height="36" viewBox="0 0 265 36" fill="none" xmlns="http://www.w3.org/2000/svg">
<path d="M23.52 8.57878V11.7549H14.2945C13.3124 11.7549 12.602 11.962 12.1653 12.3742C11.7286 12.7865 11.5111 13.343 11.5111 14.0436C11.5111 15.4801 12.4483 16.1974 14.3226 16.1974H23.385V19.0778H14.242C12.3677 19.0778 11.4305 19.8136 11.4305 21.2851C11.4305 22.0025 11.6573 22.5645 12.1128 22.9675C12.5683 23.3705 13.2674 23.5739 14.2139 23.5739H23.5481V26.75H14.2139C13.1231 26.75 12.1896 26.6243 11.4155 26.3729C10.6414 26.1214 10.0042 25.7757 9.5056 25.3357C9.00515 24.8957 8.64153 24.3707 8.41474 23.7606C8.18607 23.1505 8.07361 22.4961 8.07361 21.7954C8.07361 20.7546 8.3004 19.8894 8.75586 19.1979C9.21133 18.5065 9.86547 17.9815 10.722 17.6228C8.9939 16.9221 8.12984 15.5596 8.12984 13.5315C8.12984 12.8142 8.24792 12.1505 8.48409 11.5386C8.72025 10.9285 9.0895 10.4035 9.58994 9.96349C10.0904 9.52349 10.7277 9.18332 11.4999 8.94114C12.274 8.69895 13.2055 8.57693 14.2983 8.57693H23.5237L23.52 8.57878Z" fill="white"/>
<path d="M30.2334 8.57693L35.8486 15.2805L41.7358 8.57693H45.6966L37.8551 17.5156L45.7506 26.75H41.8438L35.7666 19.5344L29.5273 26.75H25.5665L33.7601 17.2734L26.3266 8.57693H30.2334Z" fill="white"/>
<path d="M61.8979 8.57878V11.7549H54.7615C52.9741 11.7549 51.6768 12.2171 50.8657 13.1415C50.0546 14.0658 49.649 15.5781 49.649 17.6783C49.649 19.7784 50.0489 21.263 50.8525 22.1873C51.6542 23.1117 52.9572 23.5739 54.7615 23.5739H61.8979V26.75H54.7615C52.0635 26.75 50.0001 26.0013 48.5695 24.5019C47.1388 23.0026 46.4235 20.7287 46.4235 17.6764C46.4235 14.6242 47.1388 12.3243 48.5695 10.825C50.0001 9.32567 52.0635 8.57693 54.7615 8.57693H61.8979V8.57878Z" fill="white"/>
<path d="M68.3267 8.57693V20.4495C68.3267 20.8803 68.382 21.2888 68.4962 21.6752C68.6086 22.0616 68.803 22.3925 69.0813 22.6717C69.3578 22.9509 69.7271 23.169 70.1856 23.3317C70.644 23.4925 71.2202 23.5739 71.9124 23.5739H78.718V26.75H71.7304C70.5709 26.75 69.579 26.5929 68.7567 26.2786C67.9343 25.9643 67.2635 25.5298 66.7426 24.9734C66.2235 24.4169 65.8471 23.7569 65.6134 22.9952C65.3797 22.2317 65.262 21.3942 65.262 20.4773V8.57693H68.3267Z" fill="white"/>
<path d="M84.6171 8.57693V20.7194C84.6171 21.6346 84.8539 22.3389 85.3255 22.8325C85.7972 23.3262 86.5588 23.572 87.6104 23.572H90.8183C91.8332 23.572 92.5819 23.3262 93.0628 22.8325C93.5436 22.3389 93.784 21.6346 93.784 20.7194V8.57693H96.8837V20.9616C96.8837 22.8825 96.3937 24.3263 95.4137 25.2969C94.4337 26.2656 92.9728 26.75 91.0312 26.75H87.236C83.3508 26.75 81.4092 24.8218 81.4092 20.9616V8.57693H84.6153H84.6171Z" fill="white"/>
<path d="M115.028 8.57693V11.7534H105.76C104.938 11.7534 104.34 11.9549 103.965 12.3598C103.59 12.7629 103.402 13.2806 103.402 13.9074C103.402 14.1773 103.443 14.4417 103.524 14.7024C103.605 14.9631 103.746 15.1961 103.952 15.4032C104.156 15.6102 104.43 15.7711 104.769 15.8876C105.107 16.0041 105.545 16.0632 106.082 16.0632H110.314C111.547 16.0632 112.555 16.2204 113.342 16.5347C114.127 16.849 114.749 17.2576 115.203 17.7605C115.659 18.2635 115.97 18.8366 116.141 19.4837C116.31 20.129 116.395 20.7761 116.395 21.4214C116.395 22.1943 116.288 22.9024 116.073 23.5477C115.858 24.193 115.52 24.755 115.056 25.2302C114.591 25.7054 113.998 26.0789 113.276 26.3469C112.553 26.6169 111.674 26.75 110.638 26.75H100.566V23.5736H110.745C111.602 23.5736 112.231 23.3628 112.634 22.9412C113.035 22.5197 113.237 21.9761 113.237 21.3123C113.237 21.0257 113.193 20.7429 113.103 20.4637C113.013 20.1863 112.862 19.9441 112.647 19.737C112.431 19.53 112.143 19.3654 111.777 19.2397C111.411 19.114 110.951 19.0511 110.397 19.0511H106.192C104.978 19.0511 103.987 18.8995 103.22 18.5926C102.451 18.2875 101.85 17.8844 101.412 17.3815C100.974 16.8786 100.671 16.3147 100.502 15.686C100.332 15.0574 100.248 14.4306 100.248 13.802C100.248 13.0476 100.351 12.3524 100.555 11.7146C100.761 11.0767 101.09 10.5257 101.546 10.0579C102.003 9.59199 102.586 9.22776 103.301 8.96706C104.015 8.70636 104.872 8.57693 105.872 8.57693H115.032H115.028Z" fill="white"/>
<path d="M123.123 8.57693V26.75H119.759V8.57693H123.123Z" fill="white"/>
<path d="M129.325 8.57693L134.863 23.4726C135.025 23.8927 135.324 24.1037 135.756 24.1037C136.188 24.1037 136.467 23.8927 136.648 23.4726L142.458 8.57693H145.998L139.567 25.0362C139.226 25.9141 138.743 26.532 138.122 26.8881C137.5 27.2441 136.712 27.4231 135.758 27.4231C134.856 27.4231 134.079 27.2535 133.42 26.9163C132.761 26.5772 132.262 25.9518 131.921 25.0362L125.814 8.57693H129.327H129.325Z" fill="white"/>
<path d="M162.792 8.57878V11.7549H153.968C153.029 11.7549 152.35 11.962 151.932 12.3742C151.514 12.7865 151.306 13.343 151.306 14.0436C151.306 15.4801 152.203 16.1974 153.995 16.1974H162.663V19.0778H153.918C152.126 19.0778 151.229 19.8136 151.229 21.2851C151.229 22.0025 151.446 22.5645 151.882 22.9675C152.317 23.3705 152.986 23.5739 153.891 23.5739H162.819V26.75H153.891C152.846 26.75 151.955 26.6243 151.215 26.3729C150.475 26.1214 149.865 25.7757 149.388 25.3357C148.91 24.8957 148.562 24.3707 148.343 23.7606C148.126 23.1505 148.017 22.4961 148.017 21.7954C148.017 20.7546 148.234 19.8894 148.669 19.1979C149.105 18.5065 149.731 17.9815 150.548 17.6228C148.895 16.9221 148.069 15.5596 148.069 13.5315C148.069 12.8142 148.182 12.1505 148.408 11.5386C148.634 10.9285 148.987 10.4035 149.465 9.96349C149.944 9.52349 150.553 9.18332 151.292 8.94114C152.032 8.69895 152.923 8.57693 153.968 8.57693H162.792V8.57878Z" fill="white"/>
<path d="M162.817 2.29034V0.5H0V35.5H162.817V33.7097H1.78554V2.29034H162.818H162.817Z" fill="white"/>
<path d="M259.535 0.5H174.423C171.734 0.5 169.546 2.69556 169.546 5.39396V30.606C169.546 33.3044 171.734 35.5 174.423 35.5H259.535C262.224 35.5 264.412 33.3044 264.412 30.606V5.39396C264.412 2.69556 262.224 0.5 259.535 0.5ZM194.089 23.6068C193.882 24.2957 193.555 24.8961 193.1 25.4026C192.646 25.9129 192.067 26.3162 191.362 26.6091C190.659 26.9056 189.798 27.053 188.783 27.053H186.004C183.367 27.053 181.35 26.307 179.951 24.8132C178.551 23.3194 177.851 21.052 177.851 18.0129C177.851 14.9737 178.551 12.6806 179.951 11.1868C181.35 9.69482 183.367 8.94885 186.004 8.94885H193.434V12.1133H186.004C184.257 12.1133 182.987 12.5737 182.196 13.4947C181.405 14.4156 181.006 15.9205 181.006 18.0129C181.006 20.1053 181.399 21.5844 182.181 22.5053C182.965 23.4263 184.24 23.8867 186.004 23.8867H188.998C189.89 23.8867 190.532 23.651 190.923 23.1758C191.312 22.7042 191.51 22.0909 191.51 21.3394C191.51 20.5879 191.327 20.039 190.962 19.6356C190.598 19.2341 190.042 19.0315 189.293 19.0315H185.285V16.2704H189.614C191.235 16.2704 192.437 16.7309 193.221 17.6519C194.005 18.5728 194.397 19.818 194.397 21.3928C194.397 22.1793 194.295 22.9179 194.091 23.6049L194.089 23.6068ZM201.157 27.0548H198.002V8.94885H201.157V27.053V27.0548ZM217.914 27.0548L213.799 20.0537H209.097C208.792 20.0537 208.644 20.2048 208.644 20.5087V27.053H205.489V19.8898C205.489 18.8712 205.713 18.1381 206.157 17.6906C206.601 17.2448 207.324 17.0201 208.322 17.0201H215.35C215.794 17.0201 216.18 16.9483 216.501 16.8046C216.82 16.6646 217.079 16.4749 217.275 16.241C217.47 16.0089 217.619 15.7418 217.716 15.4361C217.813 15.1321 217.863 14.8209 217.863 14.4985C217.863 13.8539 217.663 13.2958 217.261 12.8205C216.859 12.349 216.222 12.1096 215.35 12.1096H205.461V8.94516H215.242C216.257 8.94516 217.132 9.09067 217.863 9.38722C218.593 9.68377 219.193 10.0761 219.667 10.5679C220.137 11.0597 220.486 11.6362 220.708 12.2974C220.932 12.9587 221.043 13.6476 221.043 14.3622C221.043 14.9351 220.972 15.5024 220.829 16.066C220.686 16.6296 220.463 17.1582 220.161 17.65C219.856 18.1418 219.463 18.5728 218.984 18.9504C218.503 19.3243 217.914 19.6117 217.22 19.8069L221.416 27.0512H217.914V27.0548ZM237.854 27.0548H230.665C229.468 27.0548 228.449 26.8983 227.603 26.5851C226.757 26.272 226.067 25.8392 225.533 25.2848C224.999 24.7303 224.61 24.0728 224.371 23.3139C224.131 22.5532 224.009 21.717 224.009 20.8034V8.94885H227.164V20.7758C227.164 21.2049 227.221 21.6138 227.339 21.9969C227.454 22.3819 227.655 22.7135 227.941 22.9897C228.225 23.266 228.603 23.4852 229.077 23.6455C229.547 23.8057 230.14 23.8867 230.854 23.8867H237.857V27.053L237.854 27.0548ZM255.787 23.861C255.572 24.5056 255.233 25.0637 254.77 25.5389C254.31 26.0105 253.715 26.3844 252.994 26.6515C252.271 26.9204 251.393 27.0548 250.362 27.0548H240.311V23.8886H250.468C251.322 23.8886 251.951 23.6786 252.351 23.2587C252.753 22.8387 252.953 22.2972 252.953 21.6359C252.953 21.3504 252.908 21.0686 252.819 20.7905C252.729 20.5142 252.579 20.2729 252.366 20.0648C252.151 19.8603 251.861 19.6946 251.496 19.5693C251.133 19.4459 250.674 19.3833 250.12 19.3833H245.924C244.714 19.3833 243.725 19.2304 242.96 18.9246C242.193 18.6207 241.591 18.221 241.156 17.72C240.719 17.219 240.416 16.6554 240.247 16.0292C240.076 15.4047 239.992 14.7785 239.992 14.1522C239.992 13.4026 240.095 12.7082 240.298 12.0746C240.502 11.4391 240.833 10.8902 241.288 10.4261C241.741 9.96006 242.327 9.59904 243.037 9.34118C243.751 9.08146 244.606 8.95253 245.605 8.95253H254.743V12.1169H245.496C244.676 12.1169 244.079 12.3177 243.703 12.7211C243.33 13.1245 243.141 13.6365 243.141 14.2628C243.141 14.5317 243.182 14.7969 243.263 15.0548C243.343 15.3145 243.487 15.5466 243.69 15.751C243.894 15.9592 244.166 16.1176 244.505 16.2354C244.843 16.3515 245.28 16.4104 245.816 16.4104H250.039C251.269 16.4104 252.274 16.5652 253.058 16.8801C253.842 17.1932 254.46 17.5985 254.915 18.0995C255.369 18.6005 255.681 19.1733 255.851 19.8143C256.02 20.459 256.107 21.1036 256.107 21.7464C256.107 22.5145 256 23.2218 255.785 23.8646L255.787 23.861Z" fill="white"/>
</svg>
